<mxfile host="app.diagrams.net" modified="2024-02-27T15:28:38.477Z" agent="Mozilla/5.0 (Windows NT 10.0; Win64; x64) AppleWebKit/537.36 (KHTML, like Gecko) Chrome/120.0.0.0 Safari/537.36" etag="s8x8UuUKVy-syVIXSx_8" version="23.1.7" type="github">
  <diagram id="C5RBs43oDa-KdzZeNtuy" name="Page-1">
    <mxGraphModel dx="1562" dy="981" grid="1" gridSize="10" guides="1" tooltips="1" connect="1" arrows="1" fold="1" page="1" pageScale="1" pageWidth="827" pageHeight="1169" math="0" shadow="0">
      <root>
        <mxCell id="WIyWlLk6GJQsqaUBKTNV-0" />
        <mxCell id="WIyWlLk6GJQsqaUBKTNV-1" parent="WIyWlLk6GJQsqaUBKTNV-0" />
        <mxCell id="Lw8gbrDhqgCyBQB3q2ii-31" value="" style="rounded=1;whiteSpace=wrap;html=1;dashed=1;" vertex="1" parent="WIyWlLk6GJQsqaUBKTNV-1">
          <mxGeometry x="260" y="260" width="390" height="350" as="geometry" />
        </mxCell>
        <mxCell id="Lw8gbrDhqgCyBQB3q2ii-30" value="" style="rounded=1;whiteSpace=wrap;html=1;dashed=1;" vertex="1" parent="WIyWlLk6GJQsqaUBKTNV-1">
          <mxGeometry x="260" y="70" width="380" height="180" as="geometry" />
        </mxCell>
        <mxCell id="Lw8gbrDhqgCyBQB3q2ii-34" style="edgeStyle=orthogonalEdgeStyle;rounded=0;orthogonalLoop=1;jettySize=auto;html=1;entryX=0;entryY=0.5;entryDx=0;entryDy=0;" edge="1" parent="WIyWlLk6GJQsqaUBKTNV-1" source="Lw8gbrDhqgCyBQB3q2ii-0" target="Lw8gbrDhqgCyBQB3q2ii-6">
          <mxGeometry relative="1" as="geometry" />
        </mxCell>
        <mxCell id="Lw8gbrDhqgCyBQB3q2ii-0" value="" style="verticalLabelPosition=bottom;verticalAlign=top;html=1;shadow=0;dashed=0;strokeWidth=1;shape=mxgraph.android.phone2;strokeColor=#c0c0c0;direction=south;" vertex="1" parent="WIyWlLk6GJQsqaUBKTNV-1">
          <mxGeometry x="294" y="160" width="60" height="30" as="geometry" />
        </mxCell>
        <mxCell id="Lw8gbrDhqgCyBQB3q2ii-3" value="" style="image;html=1;image=img/lib/clip_art/networking/Print_Server_128x128.png" vertex="1" parent="WIyWlLk6GJQsqaUBKTNV-1">
          <mxGeometry x="290" y="320" width="80" height="80" as="geometry" />
        </mxCell>
        <mxCell id="Lw8gbrDhqgCyBQB3q2ii-16" value="" style="edgeStyle=orthogonalEdgeStyle;rounded=0;orthogonalLoop=1;jettySize=auto;html=1;" edge="1" parent="WIyWlLk6GJQsqaUBKTNV-1" source="Lw8gbrDhqgCyBQB3q2ii-4" target="Lw8gbrDhqgCyBQB3q2ii-11">
          <mxGeometry relative="1" as="geometry" />
        </mxCell>
        <mxCell id="Lw8gbrDhqgCyBQB3q2ii-4" value="" style="sketch=0;pointerEvents=1;shadow=0;dashed=0;html=1;strokeColor=none;fillColor=#505050;labelPosition=center;verticalLabelPosition=bottom;verticalAlign=top;outlineConnect=0;align=center;shape=mxgraph.office.servers.sql_server;" vertex="1" parent="WIyWlLk6GJQsqaUBKTNV-1">
          <mxGeometry x="580" y="533.5" width="50" height="53" as="geometry" />
        </mxCell>
        <mxCell id="Lw8gbrDhqgCyBQB3q2ii-12" value="" style="edgeStyle=orthogonalEdgeStyle;rounded=0;orthogonalLoop=1;jettySize=auto;html=1;" edge="1" parent="WIyWlLk6GJQsqaUBKTNV-1" source="Lw8gbrDhqgCyBQB3q2ii-6" target="Lw8gbrDhqgCyBQB3q2ii-7">
          <mxGeometry relative="1" as="geometry" />
        </mxCell>
        <mxCell id="Lw8gbrDhqgCyBQB3q2ii-6" value="拍摄牛脸图像 保存图像" style="rounded=0;whiteSpace=wrap;html=1;" vertex="1" parent="WIyWlLk6GJQsqaUBKTNV-1">
          <mxGeometry x="421" y="90" width="170" height="60" as="geometry" />
        </mxCell>
        <mxCell id="Lw8gbrDhqgCyBQB3q2ii-25" style="edgeStyle=orthogonalEdgeStyle;rounded=0;orthogonalLoop=1;jettySize=auto;html=1;" edge="1" parent="WIyWlLk6GJQsqaUBKTNV-1" source="Lw8gbrDhqgCyBQB3q2ii-7" target="Lw8gbrDhqgCyBQB3q2ii-8">
          <mxGeometry relative="1" as="geometry" />
        </mxCell>
        <mxCell id="Lw8gbrDhqgCyBQB3q2ii-7" value="http请求 图像发送" style="rounded=0;whiteSpace=wrap;html=1;" vertex="1" parent="WIyWlLk6GJQsqaUBKTNV-1">
          <mxGeometry x="420" y="180" width="170" height="60" as="geometry" />
        </mxCell>
        <mxCell id="Lw8gbrDhqgCyBQB3q2ii-8" value="牛脸检测+牛脸关键点检测" style="rounded=0;whiteSpace=wrap;html=1;" vertex="1" parent="WIyWlLk6GJQsqaUBKTNV-1">
          <mxGeometry x="420" y="280" width="170" height="60" as="geometry" />
        </mxCell>
        <mxCell id="Lw8gbrDhqgCyBQB3q2ii-9" value="牛脸姿态对齐矫正" style="rounded=0;whiteSpace=wrap;html=1;" vertex="1" parent="WIyWlLk6GJQsqaUBKTNV-1">
          <mxGeometry x="420" y="340" width="170" height="60" as="geometry" />
        </mxCell>
        <mxCell id="Lw8gbrDhqgCyBQB3q2ii-29" style="edgeStyle=orthogonalEdgeStyle;rounded=0;orthogonalLoop=1;jettySize=auto;html=1;" edge="1" parent="WIyWlLk6GJQsqaUBKTNV-1" source="Lw8gbrDhqgCyBQB3q2ii-10" target="Lw8gbrDhqgCyBQB3q2ii-4">
          <mxGeometry relative="1" as="geometry">
            <Array as="points">
              <mxPoint x="505" y="497" />
              <mxPoint x="605" y="497" />
            </Array>
          </mxGeometry>
        </mxCell>
        <mxCell id="Lw8gbrDhqgCyBQB3q2ii-10" value="牛脸识别提取512维特征" style="rounded=0;whiteSpace=wrap;html=1;" vertex="1" parent="WIyWlLk6GJQsqaUBKTNV-1">
          <mxGeometry x="420" y="400" width="170" height="60" as="geometry" />
        </mxCell>
        <mxCell id="Lw8gbrDhqgCyBQB3q2ii-19" style="edgeStyle=orthogonalEdgeStyle;rounded=0;orthogonalLoop=1;jettySize=auto;html=1;exitX=0;exitY=0.5;exitDx=0;exitDy=0;" edge="1" parent="WIyWlLk6GJQsqaUBKTNV-1" source="Lw8gbrDhqgCyBQB3q2ii-11" target="Lw8gbrDhqgCyBQB3q2ii-3">
          <mxGeometry relative="1" as="geometry">
            <Array as="points">
              <mxPoint x="330" y="560" />
            </Array>
          </mxGeometry>
        </mxCell>
        <mxCell id="Lw8gbrDhqgCyBQB3q2ii-11" value="特征相似度比对" style="rounded=0;whiteSpace=wrap;html=1;" vertex="1" parent="WIyWlLk6GJQsqaUBKTNV-1">
          <mxGeometry x="340" y="530" width="170" height="60" as="geometry" />
        </mxCell>
        <mxCell id="Lw8gbrDhqgCyBQB3q2ii-14" style="edgeStyle=orthogonalEdgeStyle;rounded=0;orthogonalLoop=1;jettySize=auto;html=1;entryX=0.553;entryY=0.023;entryDx=0;entryDy=0;entryPerimeter=0;" edge="1" parent="WIyWlLk6GJQsqaUBKTNV-1" source="Lw8gbrDhqgCyBQB3q2ii-10" target="Lw8gbrDhqgCyBQB3q2ii-11">
          <mxGeometry relative="1" as="geometry" />
        </mxCell>
        <mxCell id="Lw8gbrDhqgCyBQB3q2ii-18" style="edgeStyle=orthogonalEdgeStyle;rounded=0;orthogonalLoop=1;jettySize=auto;html=1;entryX=1.1;entryY=0.4;entryDx=0;entryDy=0;entryPerimeter=0;" edge="1" parent="WIyWlLk6GJQsqaUBKTNV-1" source="Lw8gbrDhqgCyBQB3q2ii-3" target="Lw8gbrDhqgCyBQB3q2ii-0">
          <mxGeometry relative="1" as="geometry" />
        </mxCell>
        <mxCell id="Lw8gbrDhqgCyBQB3q2ii-35" value="手机前端" style="text;html=1;align=center;verticalAlign=middle;whiteSpace=wrap;rounded=0;" vertex="1" parent="WIyWlLk6GJQsqaUBKTNV-1">
          <mxGeometry x="294" y="120" width="60" height="30" as="geometry" />
        </mxCell>
        <mxCell id="Lw8gbrDhqgCyBQB3q2ii-36" value="服务器后端" style="text;html=1;align=center;verticalAlign=middle;whiteSpace=wrap;rounded=0;" vertex="1" parent="WIyWlLk6GJQsqaUBKTNV-1">
          <mxGeometry x="260" y="430" width="70" height="30" as="geometry" />
        </mxCell>
      </root>
    </mxGraphModel>
  </diagram>
</mxfile>
